<?xml version="1.0" standalone="no"?>
<!DOCTYPE svg PUBLIC "-//W3C//DTD SVG 20010904//EN"
 "http://www.w3.org/TR/2001/REC-SVG-20010904/DTD/svg10.dtd">
<svg version="1.0" xmlns="http://www.w3.org/2000/svg"
 width="460.000000pt" height="460.000000pt" viewBox="0 0 460.000000 460.000000"
 preserveAspectRatio="xMidYMid meet">
<metadata>
Created by potrace 1.11, written by Peter Selinger 2001-2013
</metadata>
<g transform="translate(0.000000,460.000000) scale(0.100000,-0.100000)"
fill="#000000" stroke="none">
<path d="M2270 4392 c0 -5 -9 -19 -20 -32 -11 -13 -20 -29 -20 -35 0 -7 -7
-15 -15 -19 -8 -3 -15 -10 -15 -16 0 -6 -9 -21 -21 -33 -11 -12 -25 -31 -30
-42 -15 -33 -42 -73 -71 -106 -10 -10 -17 -20 -16 -21 3 -5 -55 -93 -63 -96
-5 -2 -9 -9 -9 -16 0 -12 -19 -40 -50 -75 -8 -10 -23 -33 -34 -52 -10 -19 -31
-51 -47 -71 -16 -20 -29 -41 -29 -46 0 -5 -11 -19 -25 -32 -13 -12 -22 -26
-20 -30 2 -4 -5 -16 -15 -28 -11 -12 -20 -26 -20 -32 0 -5 -5 -10 -11 -10 -5
0 -7 -4 -4 -10 3 -5 1 -10 -4 -10 -6 0 -11 -6 -11 -14 0 -8 -6 -16 -14 -19 -7
-3 -16 -14 -18 -25 -5 -18 -3 -19 25 -11 17 5 33 7 35 4 3 -3 11 0 19 6 7 6
13 9 13 6 0 -3 15 -1 33 4 17 6 54 12 82 15 27 3 55 10 61 15 8 7 14 7 18 0 4
-5 16 -7 29 -5 44 11 87 12 93 2 3 -5 5 -58 5 -117 -1 -86 2 -111 14 -121 8
-7 15 -8 15 -3 0 6 20 10 45 9 25 -1 45 1 45 5 0 3 28 4 63 2 34 -2 90 -5 124
-6 l63 -2 -1 114 c0 81 3 116 12 122 13 7 31 6 114 -6 22 -3 54 -8 71 -9 16
-2 39 -6 50 -9 10 -3 35 -8 54 -11 19 -3 56 -12 82 -19 42 -13 46 -13 40 2 -3
9 -8 18 -11 21 -14 12 -51 70 -51 80 0 6 -4 9 -9 6 -5 -3 -11 4 -15 17 -3 12
-17 35 -31 51 -14 16 -25 35 -25 42 0 7 -4 14 -8 16 -5 2 -23 26 -42 53 -18
28 -38 53 -44 57 -6 4 -7 8 -3 8 4 0 -3 15 -17 33 -15 19 -26 39 -26 45 0 6
-4 12 -9 14 -8 3 -57 73 -116 169 -16 26 -40 59 -52 73 -13 14 -20 26 -15 26
4 0 3 4 -3 8 -5 4 -32 41 -60 82 -27 41 -54 78 -60 82 -14 10 -25 10 -25 0z"/>
<path d="M3639 3580 c0 -3 -2 -12 -4 -20 -1 -8 -6 -33 -9 -54 -4 -21 -9 -48
-11 -60 -3 -12 -7 -37 -9 -56 -3 -19 -5 -35 -6 -35 -2 0 -7 -24 -14 -71 -4
-22 -11 -55 -16 -72 -5 -18 -7 -32 -4 -32 3 0 0 -9 -6 -19 -7 -14 -7 -22 1
-27 8 -5 8 -8 0 -13 -6 -4 -13 -25 -15 -47 -3 -21 -5 -39 -6 -39 -3 0 -11 -40
-15 -80 -5 -40 -12 -78 -15 -82 -2 -3 -3 -37 -1 -53 1 -11 23 -8 66 9 17 7 38
13 48 14 9 1 17 5 17 10 0 4 4 6 9 2 5 -3 13 0 16 6 4 5 13 8 21 5 8 -3 14 -1
14 5 0 6 4 8 9 4 5 -3 12 -1 16 5 17 28 95 -13 95 -50 0 -6 9 -27 20 -47 10
-20 17 -40 14 -45 -3 -4 -1 -8 5 -8 5 0 10 -8 10 -17 0 -29 8 -77 16 -96 4 -9
5 -29 2 -42 -2 -14 -1 -28 3 -30 11 -7 28 16 34 45 3 14 8 36 11 50 11 44 13
228 2 272 -17 77 -68 219 -104 297 -20 42 -37 78 -37 81 -6 26 -155 302 -157
290z"/>
<path d="M925 3533 c-10 -21 -19 -40 -19 -43 -1 -3 -4 -9 -8 -15 -10 -16 -97
-185 -98 -190 0 -3 -11 -29 -24 -57 -40 -87 -58 -130 -60 -143 -1 -7 -8 -20
-15 -29 -7 -9 -11 -16 -8 -16 4 0 0 -18 -8 -40 -8 -22 -14 -42 -15 -45 0 -3 0
-6 -1 -7 -13 -38 -16 -265 -4 -308 4 -14 7 -33 7 -42 -1 -10 4 -18 9 -18 6 0
8 -4 5 -9 -3 -5 1 -14 9 -21 8 -7 15 -11 16 -9 0 2 2 24 4 49 3 25 5 52 6 60
7 68 59 194 96 229 16 16 22 16 49 5 17 -7 34 -10 38 -7 3 4 6 1 6 -6 0 -6 6
-11 13 -10 12 2 50 -11 100 -36 19 -9 25 -10 20 -2 -5 9 -3 9 8 1 20 -16 44
-3 45 24 1 12 -2 22 -5 22 -4 0 -6 16 -6 35 1 19 -1 35 -5 35 -4 0 -8 12 -8
28 -1 15 -3 34 -5 42 -4 15 -13 63 -21 110 -3 14 -7 34 -9 45 -6 27 -20 105
-23 130 -3 24 -12 60 -14 60 -1 0 -3 11 -4 25 -2 26 -15 100 -23 135 -3 11 -5
28 -5 38 1 30 -24 19 -43 -20z"/>
<path d="M2189 3256 c-2 -2 -33 -7 -69 -9 -36 -3 -65 -6 -65 -7 0 -1 -11 -4
-25 -6 -51 -8 -75 -12 -77 -14 -2 -2 -7 -4 -13 -5 -5 -1 -12 -4 -15 -5 -3 -1
-8 -3 -12 -5 -5 -1 -21 -5 -38 -10 -16 -4 -48 -16 -70 -26 -22 -10 -56 -25
-75 -33 -19 -9 -53 -27 -75 -41 -22 -14 -50 -30 -62 -35 -12 -5 -26 -17 -32
-27 -6 -10 -11 -14 -11 -9 0 5 -13 -5 -30 -22 -16 -18 -30 -29 -30 -26 0 12
-116 -112 -150 -158 -18 -27 -37 -48 -41 -48 -4 0 -10 -11 -13 -24 -3 -14 -12
-31 -19 -38 -11 -12 -19 -26 -49 -78 -15 -27 -51 -115 -55 -133 -1 -10 -10
-32 -19 -48 -8 -17 -13 -33 -10 -36 3 -3 0 -15 -6 -27 -6 -11 -12 -32 -14 -46
-1 -14 -3 -25 -4 -25 -1 0 -3 -13 -5 -30 -1 -16 -4 -30 -5 -30 -1 0 -4 -22 -6
-50 -6 -96 -15 -189 -19 -193 -2 -2 0 -15 5 -28 6 -15 6 -34 0 -49 -6 -15 -6
-25 0 -25 5 0 8 -8 8 -17 -2 -30 24 -187 33 -198 4 -6 10 -23 13 -38 7 -37 56
-137 68 -137 5 0 7 -3 5 -7 -8 -14 18 -30 37 -23 9 3 16 8 15 10 -4 10 15 55
42 98 16 25 29 42 29 37 0 -4 13 6 30 23 28 30 29 33 16 69 -7 21 -12 47 -10
58 2 10 0 24 -4 30 -9 12 -7 269 2 335 7 54 13 87 20 120 3 14 8 34 10 45 2
11 12 37 20 57 9 21 16 39 15 40 -1 2 15 36 35 77 37 76 111 176 165 224 17
15 31 32 31 39 0 6 3 8 6 5 4 -4 14 1 23 11 19 22 83 67 94 67 4 0 11 5 15 10
4 6 21 17 37 25 17 8 38 21 49 30 10 8 19 14 20 12 1 -4 56 15 78 28 10 6 25
10 33 10 8 0 15 4 15 9 0 4 11 7 25 6 14 -2 25 1 25 6 0 5 3 8 8 7 4 -1 23 2
42 7 19 5 43 10 53 11 9 1 18 2 20 4 8 6 50 11 107 11 66 0 175 -7 175 -10 0
-2 20 -5 45 -7 61 -6 78 -9 86 -16 3 -4 12 -4 19 -2 7 3 16 1 19 -5 4 -6 13
-8 20 -5 8 3 17 1 21 -5 3 -6 15 -11 26 -11 10 0 27 -4 37 -9 9 -5 26 -13 37
-17 67 -25 115 -47 115 -54 0 -5 10 -10 23 -14 12 -3 34 -16 49 -28 55 -48 68
-58 73 -58 9 0 129 -123 160 -165 17 -22 37 -52 44 -67 8 -16 18 -28 22 -28 4
0 13 -20 20 -45 7 -25 18 -45 23 -45 5 0 6 -3 3 -6 -3 -4 -2 -15 4 -26 6 -11
12 -36 15 -56 4 -40 11 -77 14 -77 4 0 11 -131 10 -200 0 -65 -6 -160 -10
-160 -1 0 -3 -16 -5 -35 -7 -69 -13 -95 -28 -131 -9 -20 -13 -39 -10 -43 4 -3
1 -6 -5 -6 -6 0 -9 -9 -7 -20 2 -11 -3 -27 -11 -35 -9 -8 -12 -15 -7 -15 4 0
3 -4 -4 -8 -6 -4 -13 -22 -16 -40 -3 -19 -8 -36 -11 -39 -3 -3 8 -25 25 -49
19 -28 35 -41 44 -38 13 5 19 18 13 27 -1 1 5 13 12 27 7 13 15 38 17 55 2 16
7 31 12 33 5 2 7 12 4 22 -3 11 5 39 17 62 23 44 30 70 35 123 1 17 4 30 5 30
3 0 9 37 16 95 8 71 12 240 5 240 -4 0 -7 26 -8 58 -2 50 -8 97 -13 97 -1 0
-4 12 -6 27 -3 15 -11 46 -19 69 -8 22 -13 45 -10 49 3 4 -2 13 -10 20 -7 6
-11 18 -8 26 3 8 0 14 -7 14 -6 0 -8 5 -5 10 3 6 1 10 -4 10 -6 0 -10 3 -9 8
3 10 -44 106 -56 114 -6 4 -7 8 -2 8 5 0 1 9 -9 20 -10 11 -15 20 -11 20 4 0
-4 11 -18 24 -15 13 -26 28 -26 35 0 6 -5 11 -12 11 -6 0 -9 3 -5 6 3 3 -8 19
-24 35 -16 15 -29 33 -29 38 0 5 -9 13 -21 16 -11 4 -18 9 -16 12 7 7 -59 73
-73 73 -6 0 -8 5 -5 10 3 6 2 10 -2 10 -9 0 -30 15 -81 57 -15 13 -33 23 -39
23 -7 0 -13 5 -13 10 0 6 -5 10 -11 10 -6 0 -17 7 -26 15 -8 8 -19 13 -24 10
-5 -4 -9 -2 -9 3 0 4 -16 14 -35 22 -19 8 -35 16 -35 20 0 7 -68 33 -73 28 -2
-2 -11 3 -20 11 -10 7 -17 10 -17 6 0 -4 -6 -3 -12 3 -14 11 -175 53 -223 58
-61 7 -242 14 -246 10z"/>
<path d="M2266 2902 c-3 -2 -22 -6 -43 -8 -57 -6 -77 -9 -88 -16 -6 -3 -23 -9
-40 -13 -37 -10 -34 -9 -68 -23 -15 -7 -39 -15 -52 -18 -14 -3 -25 -11 -25
-17 0 -6 -3 -7 -6 -4 -7 7 -133 -78 -179 -121 -58 -55 -149 -184 -138 -196 4
-3 1 -6 -6 -6 -7 0 -9 -4 -6 -10 3 -5 2 -10 -3 -10 -5 0 -9 -6 -10 -12 -20
-195 -19 -251 7 -335 5 -17 7 -34 3 -37 -3 -3 0 -6 6 -6 7 0 11 -3 11 -7 -5
-29 4 -43 29 -49 79 -18 99 -25 100 -36 2 -27 13 -72 23 -90 6 -11 8 -26 5
-34 -3 -8 -1 -14 4 -14 6 0 5 -11 -2 -25 -6 -14 -15 -25 -20 -25 -4 0 -8 -6
-8 -13 0 -7 -12 -29 -26 -50 -29 -44 -32 -35 40 -145 33 -51 53 -91 51 -104
-2 -10 5 -42 15 -69 21 -53 20 -68 -11 -90 -58 -40 -55 -34 -26 -72 15 -20 42
-46 59 -58 18 -13 35 -26 38 -30 3 -3 15 -9 28 -13 12 -4 22 -12 22 -17 0 -6
5 -7 10 -4 5 3 16 3 23 -2 12 -8 26 -12 62 -18 11 -2 20 -4 20 -5 0 -1 37 -3
83 -4 45 -1 82 1 82 4 0 4 7 7 15 7 32 0 125 27 125 36 0 6 3 7 6 4 4 -3 16
-1 28 5 11 7 24 11 29 10 4 -1 7 2 7 8 0 5 7 10 15 10 8 0 37 14 63 30 27 17
54 30 60 30 6 0 12 4 14 8 2 4 31 27 66 51 34 24 62 48 62 53 0 5 4 7 8 4 5
-3 22 8 37 24 l28 29 -29 12 c-30 12 -44 17 -68 22 -35 7 -57 35 -71 90 -8 32
-15 60 -15 63 0 3 16 4 35 1 19 -3 36 -1 36 4 2 14 6 29 9 32 2 3 6 33 15 112
7 77 9 88 17 100 6 10 14 45 23 98 3 15 7 38 9 52 3 13 8 29 11 35 4 6 2 16
-4 23 -6 8 -6 18 -1 27 5 9 5 19 -1 27 -7 8 -7 18 -1 30 7 12 6 25 -3 44 -8
15 -11 30 -7 34 4 3 7 10 8 13 2 21 28 70 54 102 17 21 30 43 30 49 0 6 5 11
10 11 19 0 10 20 -25 56 -19 19 -35 38 -35 40 0 3 10 18 21 34 18 23 20 35 13
67 -4 21 -9 43 -9 48 -6 39 -20 64 -38 69 -12 3 -23 3 -25 1 -3 -2 -6 -35 -7
-72 -2 -37 -4 -69 -5 -70 -2 -2 -4 -7 -5 -13 -1 -5 -4 -12 -5 -15 -1 -3 -3 -9
-4 -14 -3 -26 -17 -18 -37 21 -12 23 -26 46 -31 49 -5 3 -9 9 -9 13 3 19 -2
27 -29 55 -25 25 -35 29 -54 21 -12 -4 -29 -5 -36 0 -19 12 -210 -73 -210 -94
0 -5 -3 -7 -6 -3 -3 3 -16 -5 -29 -19 -12 -13 -26 -24 -31 -24 -12 0 -159
-152 -204 -210 -46 -61 -80 -95 -94 -96 -6 0 -20 6 -31 13 -11 7 -27 13 -37
13 -15 0 -16 4 -8 28 21 57 106 203 122 210 4 2 8 7 8 12 0 27 211 242 287
292 35 23 63 45 63 50 0 4 5 7 11 6 25 -6 19 23 -8 33 -31 13 -89 19 -97 11z"/>
<path d="M549 2743 c0 -10 -3 -27 -5 -38 -6 -25 -12 -68 -18 -125 -2 -25 -5
-50 -6 -55 -1 -6 -2 -12 -1 -15 1 -3 3 -40 4 -82 1 -43 5 -78 9 -78 5 0 7 -3
6 -7 -5 -26 41 -122 64 -131 4 -2 8 -12 8 -23 0 -10 6 -19 13 -19 6 0 21 -20
32 -45 11 -25 23 -45 27 -45 5 0 8 -7 8 -15 0 -8 5 -15 11 -15 5 0 8 -3 6 -7
-7 -12 11 -53 23 -53 7 0 9 13 6 33 -2 17 -5 32 -6 32 -1 0 -3 12 -4 28 -1 15
2 27 6 27 4 0 5 6 2 14 -3 8 -6 50 -7 93 -1 43 -6 83 -10 90 -4 6 -3 14 3 18
6 4 7 12 3 18 -8 14 -12 30 -16 69 -1 16 -5 28 -9 28 -5 0 -8 6 -8 14 0 16
-51 110 -62 114 -4 2 -6 8 -2 13 3 5 0 9 -6 9 -6 0 -8 5 -5 10 3 6 2 10 -4 10
-8 0 -16 16 -26 50 -1 3 -5 24 -10 48 -8 44 -24 67 -26 35z"/>
<path d="M4029 2725 c-1 -8 -2 -18 -4 -22 -1 -5 -5 -21 -10 -38 -4 -16 -16
-42 -26 -57 -11 -14 -19 -29 -19 -33 0 -4 -9 -19 -20 -35 -11 -15 -17 -30 -13
-34 3 -3 2 -6 -4 -6 -12 0 -32 -47 -40 -95 -3 -16 -9 -35 -14 -42 -7 -7 -6
-14 1 -18 6 -3 7 -11 3 -18 -3 -6 -8 -67 -9 -136 -2 -70 -5 -143 -8 -163 -3
-21 -1 -40 4 -43 6 -4 11 -1 11 4 4 31 48 121 59 121 6 0 10 5 10 12 0 12 48
88 62 98 12 9 58 120 58 140 0 10 4 21 10 25 5 3 6 15 1 28 -5 12 -9 24 -11
27 -1 3 3 18 9 33 7 18 7 26 1 22 -7 -4 -7 3 0 19 5 14 6 26 2 26 -4 0 -7 17
-8 38 -1 33 -9 87 -19 132 -2 8 -4 18 -4 23 -2 14 -21 7 -22 -8z"/>
<path d="M872 2583 c3 -17 -15 -83 -23 -83 -5 0 -8 -3 -7 -7 2 -12 -13 -43
-44 -92 -15 -24 -25 -48 -22 -52 3 -5 0 -9 -7 -9 -7 0 -10 -3 -7 -6 4 -3 3
-18 -2 -32 -4 -15 -3 -37 1 -50 5 -12 5 -22 1 -22 -8 0 -7 -103 2 -126 5 -13
9 -14 21 -4 8 7 12 16 9 21 -3 5 -2 9 3 9 4 0 17 18 27 40 11 22 23 40 27 40
12 0 51 89 44 100 -3 6 -2 10 3 10 6 0 10 10 10 23 0 12 0 33 2 47 2 23 -5 92
-14 150 -2 14 -5 31 -5 38 -1 6 -5 12 -11 12 -5 0 -9 -3 -8 -7z"/>
<path d="M3705 2548 c-13 -75 -16 -102 -14 -143 1 -22 2 -52 2 -67 0 -16 3
-28 7 -28 3 0 6 -9 7 -20 2 -20 71 -132 85 -138 5 -2 6 -8 2 -13 -3 -5 0 -9 6
-9 6 0 8 -4 5 -10 -3 -5 -1 -10 5 -10 6 0 8 -4 5 -10 -3 -5 2 -10 12 -10 15 0
18 9 18 50 0 28 -3 50 -8 50 -4 0 -5 4 -2 10 12 19 14 50 3 50 -7 0 -7 4 1 13
6 8 8 17 4 20 -3 4 -7 17 -7 30 -2 28 -56 137 -68 137 -5 0 -7 4 -3 9 3 5 1
12 -5 16 -5 3 -10 17 -10 30 0 13 -5 25 -11 27 -6 2 -11 16 -11 31 0 42 -15
32 -23 -15z"/>
<path d="M4125 2228 c-4 -16 -11 -28 -17 -28 -5 0 -6 -5 -3 -10 3 -6 -1 -13
-9 -16 -9 -3 -16 -12 -16 -19 0 -8 -12 -23 -26 -34 -15 -12 -25 -21 -23 -21 3
0 -23 -29 -57 -64 -33 -35 -66 -77 -73 -95 -8 -17 -17 -31 -21 -31 -5 0 -6 -9
-3 -20 3 -12 0 -20 -6 -20 -7 0 -11 -6 -10 -12 1 -7 -1 -22 -5 -33 -4 -11 -12
-31 -16 -45 -4 -14 -12 -34 -16 -45 -4 -11 -6 -25 -5 -31 1 -7 -4 -25 -10 -40
-7 -16 -13 -31 -13 -34 -1 -3 -5 -10 -9 -17 -6 -10 0 -43 9 -43 2 0 17 15 34
33 38 41 32 35 121 117 41 38 81 82 89 97 8 15 21 36 29 46 8 9 11 17 8 17 -3
0 2 19 13 42 10 23 16 46 13 50 -2 5 0 15 6 21 5 7 10 22 10 32 2 58 5 85 12
85 4 0 6 9 4 20 -2 11 0 32 4 47 4 16 4 39 1 53 l-7 25 -8 -27z"/>
<path d="M454 2226 c-3 -8 -1 -23 5 -34 6 -11 9 -34 7 -51 -2 -17 0 -34 4 -36
5 -3 7 -13 6 -22 -2 -10 3 -40 10 -67 7 -27 11 -53 8 -58 -3 -4 -1 -8 3 -8 5
0 9 -10 10 -21 1 -12 9 -29 17 -38 9 -10 13 -21 9 -25 -5 -4 1 -14 11 -22 13
-9 15 -14 6 -14 -10 0 81 -94 174 -179 38 -36 74 -80 80 -99 4 -12 12 -20 17
-17 10 7 8 55 -3 55 -4 0 -8 9 -8 20 0 11 -4 28 -10 38 -11 20 -44 130 -45
152 0 8 -6 25 -13 37 -6 12 -14 30 -15 40 -9 42 -39 93 -90 150 -30 34 -58 59
-61 56 -3 -4 -6 1 -6 10 0 8 -9 19 -20 22 -11 3 -20 10 -20 15 0 10 -61 110
-67 110 -2 0 -6 -6 -9 -14z"/>
<path d="M864 2142 c-6 -4 -14 -20 -16 -37 -3 -16 -15 -53 -26 -82 -11 -28
-17 -54 -14 -57 2 -3 1 -11 -5 -18 -5 -7 -10 -42 -12 -78 -2 -36 -5 -68 -8
-72 -2 -5 0 -8 6 -8 5 0 8 -9 6 -20 -2 -11 1 -20 7 -20 6 0 9 -3 5 -6 -6 -6
17 -96 34 -129 9 -18 16 -44 18 -67 1 -5 6 -8 12 -8 5 0 7 5 4 10 -4 6 -1 17
5 25 7 8 10 15 7 15 -3 0 -1 15 4 33 6 17 12 40 14 50 2 9 7 23 12 30 10 17
13 227 2 227 -5 0 -8 3 -7 8 0 4 -2 14 -5 22 -23 53 -34 101 -32 143 1 26 1
47 1 47 -1 0 -6 -4 -12 -8z"/>
<path d="M3729 2092 c0 -4 -2 -16 -3 -27 -2 -11 -15 -55 -29 -97 -23 -65 -26
-89 -23 -160 2 -46 9 -98 14 -115 6 -18 8 -33 4 -33 -4 0 -2 -4 4 -8 7 -4 14
-27 18 -51 6 -48 25 -79 27 -45 1 10 1 22 0 27 0 4 4 7 10 7 5 0 8 4 4 9 -3 5
-1 12 5 16 6 4 8 10 5 15 -3 5 0 14 7 22 7 7 14 22 15 33 3 27 11 69 13 73 2
1 4 11 5 22 1 11 3 23 5 28 4 13 -5 137 -10 137 -1 0 -3 7 -5 15 -10 51 -40
130 -52 134 -7 3 -13 2 -14 -2z"/>
<path d="M965 1722 c-15 -11 -17 -27 -20 -157 -2 -117 12 -199 37 -216 6 -3 9
-9 9 -13 -3 -17 1 -25 19 -46 11 -13 20 -29 20 -35 0 -7 7 -16 16 -19 9 -4 14
-9 10 -13 -8 -8 32 -36 42 -29 10 6 9 36 -1 53 -5 7 -4 21 1 30 9 16 8 126 -1
163 -2 8 -7 32 -12 53 -4 20 -12 37 -18 37 -6 0 -8 3 -4 6 3 3 -10 29 -29 56
-19 28 -37 61 -40 74 -3 13 -10 24 -14 24 -5 0 -6 9 -3 20 6 22 4 24 -12 12z"/>
<path d="M3620 1715 c0 -8 0 -17 0 -20 0 -3 -7 -20 -17 -38 -9 -17 -16 -36
-15 -40 1 -4 -5 -10 -13 -13 -8 -4 -15 -12 -15 -20 0 -8 -4 -14 -8 -14 -10 0
-40 -82 -48 -130 -6 -39 -7 -121 -1 -160 2 -14 1 -29 -2 -35 -8 -16 -10 -85
-2 -85 4 0 13 11 19 25 6 14 16 25 22 25 5 0 10 6 10 14 0 7 10 26 22 41 28
36 58 94 64 125 3 13 9 29 14 35 12 15 4 279 -9 283 -6 2 -9 8 -5 13 3 5 0 9
-5 9 -6 0 -11 -7 -11 -15z"/>
<path d="M3103 1706 c-13 -6 -23 -14 -23 -19 0 -4 -4 -6 -9 -3 -10 7 -111 -97
-111 -115 0 -7 -3 -10 -6 -6 -8 8 -54 -42 -54 -59 0 -22 17 -16 39 12 11 14
29 26 40 27 12 1 21 4 21 8 0 8 45 3 61 -7 15 -9 54 -16 98 -16 50 -1 83 39
80 98 -2 30 -7 44 -16 44 -8 0 -12 4 -9 8 14 23 -76 44 -111 28z"/>
<path d="M494 1683 c0 -10 5 -21 9 -24 5 -3 9 -12 11 -20 1 -8 8 -24 14 -36 7
-13 9 -23 5 -23 -4 0 -2 -4 5 -9 7 -4 14 -14 15 -22 3 -16 52 -90 80 -120 9
-11 17 -22 17 -25 0 -15 105 -95 114 -87 3 3 6 1 6 -6 0 -7 4 -10 9 -7 5 4 11
1 13 -4 2 -6 10 -12 18 -14 15 -3 23 -6 65 -22 11 -4 22 -8 25 -9 31 -11 80
-37 85 -45 8 -13 25 -3 25 14 0 7 -9 22 -20 34 -11 12 -20 26 -20 32 0 5 -4
10 -10 10 -5 0 -10 5 -10 10 0 6 -9 20 -20 32 -11 12 -20 28 -20 35 0 7 -4 13
-10 13 -5 0 -10 4 -10 10 0 22 -111 138 -152 159 -16 8 -28 18 -28 23 0 5 -4
6 -10 3 -5 -3 -10 -1 -10 6 0 7 -3 9 -6 6 -9 -9 -78 29 -131 70 -47 37 -61 41
-59 16z"/>
<path d="M4063 1678 c-10 -13 -61 -44 -114 -71 -83 -41 -199 -128 -199 -149 0
-7 -7 -16 -52 -70 -10 -11 -20 -29 -23 -39 -4 -11 -11 -19 -16 -19 -5 0 -9 -4
-9 -10 0 -9 -19 -36 -48 -66 -7 -8 -10 -14 -6 -14 4 0 -6 -12 -21 -26 -21 -20
-25 -28 -15 -34 8 -5 22 0 38 15 23 21 100 64 125 69 7 2 29 10 49 20 21 9 42
16 48 16 5 0 10 3 10 8 0 4 18 16 40 26 22 11 40 22 40 25 0 3 17 24 38 46 38
42 78 97 73 104 -1 2 1 7 6 10 9 7 67 124 77 159 5 16 3 22 -8 22 -8 0 -23
-10 -33 -22z"/>
<path d="M1477 1644 c-1 -2 -14 -4 -27 -6 -47 -7 -118 -59 -124 -90 -2 -7 -7
-22 -12 -33 -13 -29 -9 -138 5 -143 6 -2 11 -9 11 -16 0 -11 29 -44 80 -91 8
-7 29 -19 45 -26 17 -8 32 -17 35 -21 7 -10 140 -58 140 -51 0 3 6 1 13 -4 13
-11 53 -22 102 -30 17 -2 37 -7 45 -10 29 -12 70 -14 70 -4 0 6 -7 11 -15 11
-8 0 -15 5 -15 12 0 6 -3 9 -6 5 -6 -6 -62 32 -97 66 -31 31 -46 85 -51 192
-4 73 -21 139 -42 160 -8 8 -13 15 -9 15 12 0 -21 28 -55 45 -29 15 -85 26
-93 19z"/>
<path d="M2988 1462 c-35 -14 -71 -32 -80 -40 -10 -8 -18 -12 -18 -8 0 4 -14
-4 -31 -18 -17 -14 -34 -26 -38 -26 -4 0 -16 -8 -27 -18 -10 -10 -28 -23 -38
-29 -11 -6 -20 -18 -22 -26 -2 -13 2 -13 30 1 60 30 65 32 71 23 3 -5 14 -7
24 -4 25 6 83 -22 127 -61 20 -17 39 -31 42 -32 4 0 22 -8 41 -16 41 -19 116
-7 143 22 10 11 16 20 13 20 -4 0 1 7 9 16 9 8 14 20 11 25 -4 5 -2 9 3 9 15
0 12 61 -4 93 -15 28 -61 79 -77 85 -4 1 -8 3 -9 3 -2 1 -27 3 -55 4 -37 1
-72 -6 -115 -23z"/>
<path d="M3451 1377 c-14 -37 -56 -98 -63 -92 -2 3 -24 -15 -47 -40 -50 -53
-99 -149 -107 -208 -4 -23 -10 -45 -16 -48 -5 -3 -6 -13 -3 -21 4 -9 1 -19 -4
-23 -6 -3 -9 -11 -6 -16 4 -5 2 -9 -4 -9 -6 0 -8 -7 -5 -15 9 -22 15 -19 73
30 29 25 50 45 47 45 -2 0 7 13 22 28 15 15 30 27 33 25 4 -1 12 11 19 27 7
17 16 30 21 30 5 0 9 9 9 20 0 11 4 20 8 20 24 0 58 211 41 256 -6 17 -8 16
-18 -9z"/>
<path d="M1126 1321 c2 -26 6 -61 9 -77 4 -16 7 -35 7 -41 1 -7 5 -13 10 -13
5 0 7 -4 4 -9 -4 -5 7 -35 24 -68 36 -71 207 -250 223 -234 7 7 7 18 0 33 -11
22 -32 96 -36 128 -2 8 -6 21 -10 28 -5 6 -6 12 -2 12 3 0 -1 13 -9 29 -9 16
-12 31 -9 35 4 3 1 6 -5 6 -6 0 -14 10 -18 23 -4 12 -38 52 -75 90 -38 37 -69
70 -69 73 0 9 -28 34 -38 34 -4 0 -7 -22 -6 -49z"/>
<path d="M3917 1252 c-5 -7 -13 -10 -18 -6 -6 3 -13 -3 -15 -13 -6 -23 -93
-54 -188 -68 -89 -13 -186 -67 -280 -157 -16 -15 -38 -30 -48 -34 -10 -3 -18
-9 -18 -14 0 -4 -22 -25 -50 -46 -67 -51 -66 -69 3 -45 58 20 114 31 190 36
43 3 135 31 147 45 3 3 18 14 35 24 51 33 127 105 185 176 19 24 43 52 53 62
10 11 17 27 15 36 -3 13 -5 14 -11 4z"/>
<path d="M697 1223 c-4 -3 -7 -13 -7 -21 0 -9 3 -13 6 -9 7 7 44 -29 44 -43 0
-5 5 -10 10 -10 6 0 10 -4 10 -10 0 -9 89 -100 132 -133 37 -30 104 -67 127
-72 12 -2 26 -7 31 -10 6 -4 32 -8 58 -10 70 -5 135 -16 154 -26 9 -5 28 -9
42 -9 14 0 26 -4 26 -10 0 -5 9 -10 20 -10 13 0 18 5 14 15 -4 8 -10 15 -15
15 -6 0 -15 5 -22 10 -7 6 -23 20 -37 31 -50 41 -102 84 -123 104 -38 34 -95
75 -106 75 -6 0 -11 4 -11 10 0 5 -12 13 -27 16 -16 4 -31 12 -35 17 -3 6 -17
12 -30 13 -12 2 -39 5 -58 9 -19 3 -43 7 -52 8 -10 2 -21 6 -24 10 -4 4 -15 7
-24 7 -8 0 -33 9 -55 20 -46 23 -40 22 -48 13z"/>
<path d="M2425 1086 c-24 -15 -106 -38 -147 -40 -10 0 -18 -3 -18 -6 0 -3 -29
-5 -65 -5 -36 0 -65 4 -65 9 0 6 -5 5 -11 -1 -8 -8 -11 -76 -11 -212 1 -235 1
-234 -88 -146 -30 30 -63 54 -72 55 -9 0 -20 5 -23 10 -4 6 -10 8 -14 6 -4 -3
-36 3 -70 14 -52 15 -63 16 -68 5 -5 -14 32 -75 46 -75 4 0 16 -8 27 -18 16
-15 47 -33 64 -36 3 -1 11 -5 18 -9 7 -5 34 -11 60 -13 26 -3 56 -7 67 -8 11
-2 26 -4 33 -5 6 0 12 -5 12 -10 0 -6 -24 -8 -52 -6 -29 2 -53 4 -53 5 0 5
-96 11 -165 10 -81 0 -115 -3 -142 -13 -10 -4 -26 -10 -35 -14 -10 -3 -24 -5
-30 -4 -7 1 -13 -2 -13 -7 0 -15 -92 -40 -162 -44 -54 -3 -55 -12 -5 -28 23
-8 47 -17 53 -22 7 -5 26 -10 43 -11 17 -1 31 -4 31 -7 0 -3 8 -7 18 -8 21 -2
57 -10 57 -12 0 -1 16 -3 35 -6 66 -7 159 -4 187 7 15 6 30 10 33 11 3 0 30
12 60 26 30 14 60 27 65 28 29 5 41 10 46 18 4 5 14 6 23 3 13 -5 15 -11 7
-26 -6 -10 -7 -21 -4 -25 8 -8 7 -112 -1 -125 -4 -5 -2 -13 4 -16 7 -4 8 -11
2 -18 -5 -7 -6 -21 -2 -32 4 -11 4 -30 -1 -41 -6 -17 -2 -24 19 -34 15 -8 38
-15 52 -17 14 -2 32 -6 40 -10 46 -18 196 1 242 31 23 15 23 17 18 154 -6 169
-5 175 23 166 12 -4 28 -7 35 -7 6 0 12 -4 12 -9 0 -4 9 -8 20 -8 11 0 48 -15
83 -32 35 -18 70 -35 78 -38 26 -9 223 -8 246 1 13 5 34 11 46 13 12 3 57 15
99 28 87 26 91 42 13 51 -27 3 -59 8 -70 11 -36 9 -130 51 -137 61 -5 6 -8 5
-8 -3 0 -7 -4 -10 -10 -7 -25 16 -200 28 -200 14 0 -3 -17 -5 -37 -4 -21 1
-45 -1 -54 -6 -21 -11 -31 -1 -16 15 6 7 21 11 34 8 25 -5 92 27 128 61 75 70
85 81 77 94 -6 9 -15 8 -37 -3 -28 -15 -74 -25 -117 -27 -10 -1 -18 -6 -18
-11 0 -5 -3 -7 -6 -3 -7 6 -17 -1 -75 -54 -27 -25 -38 -41 -33 -52 3 -10 10
-17 15 -17 5 0 9 -4 9 -9 0 -11 -82 -21 -92 -12 -4 4 -8 120 -8 259 -1 265 -2
268 -45 238z"/>
<path d="M3156 1005 c-3 -8 -12 -15 -21 -15 -8 0 -15 -3 -15 -7 0 -5 -36 -24
-79 -43 -57 -26 -86 -46 -109 -75 -17 -22 -31 -44 -32 -50 -2 -9 -18 -30 -60
-82 -6 -7 -10 -21 -10 -32 0 -19 2 -19 33 -7 41 16 66 25 72 26 16 0 123 68
138 87 10 13 24 29 30 36 24 26 54 73 67 107 7 19 17 40 22 46 5 7 2 14 -8 18
-21 8 -21 8 -28 -9z"/>
<path d="M1415 993 c4 -10 8 -22 9 -28 1 -5 8 -21 16 -35 8 -14 15 -27 15 -30
4 -19 42 -70 53 -70 7 0 10 -4 7 -10 -3 -5 2 -10 11 -10 10 0 14 -3 11 -7 -15
-14 121 -87 182 -97 41 -6 42 -6 36 16 -4 13 -20 42 -36 65 -16 23 -29 45 -29
50 0 16 -75 80 -115 98 -83 36 -125 59 -125 67 0 4 -9 8 -21 8 -16 0 -19 -4
-14 -17z"/>
<path d="M1269 826 c-14 -14 -206 -26 -230 -15 -8 4 -22 3 -30 -2 -11 -8 -10
-13 11 -29 14 -12 39 -28 55 -37 17 -9 32 -19 35 -24 3 -4 12 -9 19 -11 8 -2
23 -10 33 -18 10 -8 24 -15 31 -15 6 -1 30 -9 52 -19 22 -10 47 -20 55 -21 8
-2 15 -4 15 -5 0 -1 16 -3 35 -5 19 -1 37 -3 40 -5 3 -1 9 -2 13 -1 4 1 25 3
45 6 20 3 48 7 62 10 14 3 59 8 100 11 41 2 86 7 99 10 22 5 23 6 5 19 -11 8
-26 15 -34 15 -8 0 -40 12 -70 27 -30 14 -59 27 -65 27 -5 1 -25 9 -42 19 -18
10 -33 15 -33 11 0 -4 -6 -2 -12 3 -7 5 -33 15 -58 22 -25 7 -57 16 -72 21
-18 5 -28 5 -28 -2 0 -7 -5 -7 -13 1 -8 6 -16 9 -18 7z"/>
<path d="M3349 826 c-2 -2 -24 -5 -49 -7 -25 -1 -49 -5 -55 -8 -5 -3 -14 -6
-20 -6 -24 0 -155 -50 -155 -58 0 -5 -7 -7 -15 -3 -8 3 -15 1 -15 -4 0 -6 -8
-10 -19 -10 -10 0 -31 -10 -47 -22 -15 -13 -25 -17 -20 -10 4 7 -7 4 -26 -6
-18 -10 -39 -17 -46 -15 -7 3 -10 -1 -6 -11 4 -11 21 -15 62 -15 32 1 59 0 62
-1 3 -2 16 -3 30 -4 14 -1 30 -4 35 -7 6 -3 26 -6 45 -8 19 -1 36 -6 38 -11 2
-5 13 -5 26 0 15 5 27 5 35 -3 6 -6 11 -7 11 -1 0 5 10 10 23 11 50 1 137 30
137 45 0 5 4 6 10 3 10 -6 65 21 140 70 74 48 91 77 38 66 -43 -9 -185 -1
-204 11 -6 4 -13 6 -15 4z"/>
</g>
</svg>
